<svg xmlns="http://www.w3.org/2000/svg" xmlns:xlink="http://www.w3.org/1999/xlink" width="117" height="40.808" viewBox="0 0 117 40.808"><defs><clipPath id="a"><rect width="117" height="40.808" fill="none"/></clipPath></defs><g transform="translate(0 0)"><g transform="translate(0 0)" clip-path="url(#a)"><path d="M37.726,6.862a8.663,8.663,0,0,1,3.358,3.1,8.873,8.873,0,0,1,1.162,4.649,9.552,9.552,0,0,1-1.162,4.649,7.8,7.8,0,0,1-3.358,3.1,10.364,10.364,0,0,1-5.036,1.162H25.2V5.7h7.619a10.2,10.2,0,0,1,4.907,1.162M35.273,19.13a4.56,4.56,0,0,0,1.679-1.808,6.018,6.018,0,0,0,0-5.424,4.56,4.56,0,0,0-1.679-1.808,5.341,5.341,0,0,0-2.454-.646h-2.97v10.2h3.1a3.472,3.472,0,0,0,2.325-.517" transform="translate(7.343 1.661)" fill="#231f20"/><path d="M56.551,23.521l-1.162-3.228H47.77l-1.291,3.1H41.7L49.319,5.7H54.1l7.49,17.692H56.551Zm-7.49-6.715h4.907l-2.454-6.328Z" transform="translate(12.151 1.661)" fill="#231f20"/><path d="M58.9,5.7H74.138V9.574H68.844V23.521H64.195V9.574H58.9V5.7" transform="translate(17.163 1.661)" fill="#231f20"/><path d="M87.48,23.521l-1.291-3.228H78.57l-1.291,3.1H72.5L80.119,5.7H84.9l7.49,17.692H87.48Zm-7.49-6.715H84.9l-2.454-6.328Z" transform="translate(21.126 1.661)" fill="#231f20"/><path d="M29.778,22.346a3.663,3.663,0,0,1,1.291,1.162,2.51,2.51,0,0,1,.387,1.679,2.381,2.381,0,0,1-.517,1.679,2.827,2.827,0,0,1-1.291,1.162,4.125,4.125,0,0,1-1.808.387H25V21.7h2.841a11.161,11.161,0,0,1,1.937.646M29,27.124a1.323,1.323,0,0,0,.646-.775,2.2,2.2,0,0,0,0-2.066,2.193,2.193,0,0,0-.775-.775,2.433,2.433,0,0,0-1.033-.258H26.55v4.132H27.97A2,2,0,0,0,29,27.124" transform="translate(7.285 6.323)" fill="#231f20"/><path d="M39.757,21.9,37.3,26.42v2.2h-1.55V26.549L33.3,22.029h1.55L36.528,25l1.679-2.97h1.55Z" transform="translate(9.703 6.381)" fill="#231f20"/><path d="M46.649,21.9H48.07v6.715H46.649l-3.228-4.262v4.262H42V21.9h1.421l3.228,4.262Z" transform="translate(12.238 6.381)" fill="#231f20"/><path d="M56.082,28.615l-.517-1.291h-3.1l-.517,1.291H50.4L53.241,21.9h1.55l2.841,6.715h-1.55m-3.1-2.583h2.066L54.016,23.45Z" transform="translate(14.686 6.381)" fill="#231f20"/><path d="M59.858,21.9h1.679L63.6,26.032,65.67,21.9h1.679v6.715H65.928V24.1L63.991,27.97H62.958L61.021,24.1v4.52H59.6V21.9Z" transform="translate(17.367 6.381)" fill="#231f20"/><rect width="1.55" height="6.715" transform="translate(90.268 28.281)" fill="#231f20"/><path d="M79.549,23.408a2.394,2.394,0,0,0-.9-.258,2.433,2.433,0,0,0-1.033.258,2.193,2.193,0,0,0-.775.775,2.2,2.2,0,0,0,0,2.066,2.193,2.193,0,0,0,.775.775,2.433,2.433,0,0,0,1.033.258,2.394,2.394,0,0,0,.9-.258,4.019,4.019,0,0,0,.775-.517l.9.9a4.638,4.638,0,0,1-1.291.9,3.119,3.119,0,0,1-3.228-.129,4.1,4.1,0,0,1-1.291-1.291,4.2,4.2,0,0,1-.517-1.808,3.228,3.228,0,0,1,.517-1.808,4.1,4.1,0,0,1,1.291-1.291,4.125,4.125,0,0,1,1.808-.387,5.492,5.492,0,0,1,1.421.258,4.507,4.507,0,0,1,1.162.775l-.9,1.033c-.129.129-.387,0-.646-.258" transform="translate(21.825 6.294)" fill="#231f20"/><path d="M87.074,23.35a3.209,3.209,0,0,0-1.033-.129.968.968,0,0,0-.646.129c-.129.129-.258.258-.258.387,0,.258.129.387.387.517a4.372,4.372,0,0,0,1.033.387,12.19,12.19,0,0,1,1.162.387,3.424,3.424,0,0,1,.775.646,1.391,1.391,0,0,1,.258,1.033,2.083,2.083,0,0,1-.387,1.162,2.316,2.316,0,0,1-.9.646,4.588,4.588,0,0,1-1.291.258,6.482,6.482,0,0,1-1.55-.258A3.078,3.078,0,0,1,83.2,27.74l.646-1.291,1.162.775a2.124,2.124,0,0,0,1.162.258,1.638,1.638,0,0,0,.775-.129.671.671,0,0,0,.258-.517.474.474,0,0,0-.129-.387c-.129-.129-.258-.258-.387-.258-.258-.258-.517-.258-.9-.387a12.19,12.19,0,0,1-1.162-.387,1.722,1.722,0,0,1-.775-.646,1.391,1.391,0,0,1-.258-1.033,1.466,1.466,0,0,1,.387-1.033,2.316,2.316,0,0,1,.9-.646A4.642,4.642,0,0,1,86.3,21.8a3.82,3.82,0,0,1,1.291.258,3.191,3.191,0,0,1,1.162.517l-.646,1.291a2.6,2.6,0,0,0-1.033-.517" transform="translate(24.244 6.352)" fill="#231f20"/><path d="M9.716,8.687c0,.517-.258.9-.775.9H6.875a.864.864,0,0,1-.775-.9V6.1a.864.864,0,0,1,.775-.9H8.941a.864.864,0,0,1,.775.9Z" transform="translate(1.777 1.515)" fill="#b9800e"/><path d="M3.358,6.987a1,1,0,0,1-.9,1.033H.646C.258,8.02,0,7.632,0,7.116A20.981,20.981,0,0,0,.517,4.662c.129-.517.517-1.033.9-1.033A9.148,9.148,0,0,1,3.228,3.5c.387,0,.646.387.517.9a20.928,20.928,0,0,1-.387,2.583" transform="translate(0 1.02)" fill="#001722"/><path d="M13.645,13.579c0,.517-.258,1.033-.775.9a11.109,11.109,0,0,1-2.066-.129c-.387,0-.775-.517-.775-1.033A18.187,18.187,0,0,0,9.9,10.609c0-.517.258-1.033.775-.9.775,0,1.291.129,2.066.129.387,0,.775.517.775,1.033a18.187,18.187,0,0,1,.129,2.712" transform="translate(2.885 2.822)" fill="#b80c80"/><path d="M13.716,18.074c0,.517-.387,1.033-.775,1.033H10.875c-.387,0-.775-.517-.775-1.033V15.233c0-.646.387-1.033.775-1.033h2.066c.387,0,.775.517.775,1.033Z" transform="translate(2.943 4.138)" fill="#b4d234"/><path d="M13.516,22.516c0,.517-.387,1.033-.775,1.033a10.438,10.438,0,0,1-2.066.129.864.864,0,0,1-.775-.9,20,20,0,0,1,.129-2.712c0-.517.387-1.033.775-1.033A10.438,10.438,0,0,0,12.87,18.9a.864.864,0,0,1,.775.9,18.187,18.187,0,0,1-.129,2.712" transform="translate(2.885 5.507)" fill="#6e5700"/><path d="M9.687,26.9a.864.864,0,0,1-.775.9,9.968,9.968,0,0,1-1.937.258.864.864,0,0,1-.775-.9V24.7c0-.517.258-.9.775-.9H8.912a.864.864,0,0,1,.775.9Z" transform="translate(1.807 6.935)" fill="#717275"/><path d="M3.994,29.658c0,.517-.258.9-.517.9H1.67a.864.864,0,0,1-.775-.9c-.129-.9-.258-1.421-.387-2.454-.129-.517.129-.9.517-.9H2.961a.864.864,0,0,1,.775.9c.129.9.129,1.421.258,2.454" transform="translate(0.138 7.664)" fill="#001f5a"/><path d="M5.916,13.287c0,.517-.387,1.033-.775,1.033a10.438,10.438,0,0,0-2.066.129.864.864,0,0,1-.775-.9c0-1.033.129-1.55.129-2.583,0-.517.387-1.033.775-1.033A10.438,10.438,0,0,1,5.27,9.8a.864.864,0,0,1,.775.9,16.465,16.465,0,0,0-.129,2.583" transform="translate(0.67 2.856)" fill="#81ae34"/><path d="M12.558,4.953c.129.387-.129.646-.517.517A12.119,12.119,0,0,0,10.1,4.694a1.283,1.283,0,0,1-.775-1.033c0-.9-.129-1.162-.129-1.937,0-.387.258-.646.517-.517.646.258,1.033.517,1.808.775.387.129.517.517.646.9a9.789,9.789,0,0,1,.387,2.066" transform="translate(2.681 0.342)" fill="#0080be"/><path d="M15.569,6.482c.129.387,0,.646-.387.517-.646-.258-.9-.387-1.679-.646-.387-.129-.646-.646-.775-1.033a10.937,10.937,0,0,0-.517-2.2c-.129-.387,0-.646.387-.517a8.686,8.686,0,0,1,1.421.9,3.108,3.108,0,0,1,.775,1.033,12.12,12.12,0,0,0,.775,1.937" transform="translate(3.544 0.75)" fill="#0080be"/><path d="M17.889,8.146c.258.387.129.387-.129.258a13.611,13.611,0,0,0-1.421-.9,2.189,2.189,0,0,1-.775-1.033c-.258-.775-.387-.9-.646-1.679-.129-.387-.129-.517.129-.258l1.033,1.033c.258.258.646.775.9,1.033.387.646.517.9.9,1.55" transform="translate(4.323 1.281)" fill="#0080be"/><path d="M16.494,9.952c.129.517-.129.775-.517.646-.775-.129-1.033-.258-1.808-.387a1.125,1.125,0,0,1-.775-1.033c-.129-.9-.258-1.421-.387-2.325-.129-.517.129-.775.517-.646.646.258,1.033.387,1.679.646.387.129.646.646.775,1.033a9.674,9.674,0,0,1,.517,2.066" transform="translate(3.78 1.799)" fill="#0080be"/><path d="M19.369,11.01c.129.387,0,.646-.387.517A6.393,6.393,0,0,0,17.3,11.01a1.125,1.125,0,0,1-.775-1.033c-.258-.9-.258-1.291-.517-2.066-.129-.387,0-.646.387-.387a13.612,13.612,0,0,1,1.421.9,2.189,2.189,0,0,1,.775,1.033,3.467,3.467,0,0,1,.775,1.55" transform="translate(4.651 2.162)" fill="#0080be"/><path d="M17.087,13.851c0,.517-.258.9-.646.775A9.774,9.774,0,0,0,14.5,14.5c-.387,0-.775-.517-.775-1.033,0-1.033-.129-1.55-.129-2.583,0-.517.258-.9.646-.775.775.129,1.162.258,1.808.387a1.125,1.125,0,0,1,.775,1.033,12.8,12.8,0,0,1,.258,2.325" transform="translate(3.963 2.937)" fill="#0080be"/><path d="M9.316,3.563c0,.387-.258.775-.646.646A10.037,10.037,0,0,0,6.6,3.951c-.387,0-.775-.517-.775-.9,0-.9-.129-1.291-.129-2.2,0-.387.258-.775.646-.646A8.5,8.5,0,0,1,8.283.722a1.365,1.365,0,0,1,.775.9c.129.646.129,1.033.258,1.937" transform="translate(1.661 0.053)" fill="#0080be"/><path d="M20.265,14.294c0,.387-.129.775-.517.646-.646-.129-1.033-.129-1.808-.258-.387,0-.775-.517-.775-.9-.129-.9-.129-1.421-.258-2.325-.129-.517.129-.775.517-.646a8.353,8.353,0,0,1,1.679.517,1.365,1.365,0,0,1,.775.9c.129.775.258,1.162.387,2.066" transform="translate(4.917 3.14)" fill="#0080be"/><path d="M9.945,18.174c0,.646-.387,1.033-.775,1.033h-2.2c-.517,0-.775-.517-.775-1.033V15.333c0-.646.387-1.033.775-1.033h2.2c.517,0,.775.517.775,1.033Z" transform="translate(1.807 4.167)" fill="#0080be"/><path d="M17.287,17.891a.864.864,0,0,1-.775.9c-.775,0-1.162.129-1.937.129a.864.864,0,0,1-.775-.9V15.309c0-.517.258-1.033.775-.9a9.774,9.774,0,0,1,1.937.129c.387,0,.775.517.775.9Z" transform="translate(4.021 4.191)" fill="#0080be"/><path d="M20.4,17.728a1.208,1.208,0,0,1-.646.9c-.646,0-1.033.129-1.808.129-.387,0-.646-.387-.646-.9V15.4c0-.517.258-.9.646-.9.775,0,1.033.129,1.808.129.387,0,.646.387.646.9Z" transform="translate(5.041 4.225)" fill="#0080be"/><path d="M6.045,22.85c0,.517-.258,1.033-.775.9-.775,0-1.291-.129-2.066-.129-.387,0-.775-.517-.775-1.033A17.307,17.307,0,0,1,2.3,20.009c0-.517.258-1.033.775-.9a11.108,11.108,0,0,1,2.066.129c.387,0,.775.517.775,1.033a19.113,19.113,0,0,0,.129,2.583" transform="translate(0.67 5.561)" fill="#0080be"/><path d="M16.828,21.9a1.339,1.339,0,0,1-.775,1.033c-.775.129-1.162.258-1.808.387-.387.129-.646-.258-.646-.775a17.308,17.308,0,0,0,.129-2.583c0-.517.387-1.033.775-1.033.775,0,1.162-.129,1.937-.129a.723.723,0,0,1,.646.775,14.23,14.23,0,0,1-.258,2.325" transform="translate(3.963 5.478)" fill="#0080be"/><path d="M19.87,21.012a1.817,1.817,0,0,1-.775.9c-.646.258-1.033.258-1.679.517-.387.129-.517-.258-.517-.646a12.8,12.8,0,0,0,.258-2.325.864.864,0,0,1,.775-.9c.775-.129,1.033-.129,1.808-.258.387,0,.646.258.517.646-.129.9-.258,1.291-.387,2.066" transform="translate(4.925 5.332)" fill="#0080be"/><path d="M15.97,25.518a2.189,2.189,0,0,1-.775,1.033,8.967,8.967,0,0,1-1.679.646c-.387.129-.517-.129-.517-.646.129-.9.258-1.421.387-2.325a1.339,1.339,0,0,1,.775-1.033c.775-.129,1.162-.258,1.808-.387.387-.129.646.258.517.646a9.674,9.674,0,0,1-.517,2.066" transform="translate(3.788 6.638)" fill="#0080be"/><path d="M18.691,24.074a3.108,3.108,0,0,1-.775,1.033c-.517.387-.9.517-1.421.9-.258.129-.517,0-.387-.387a9.674,9.674,0,0,0,.517-2.066,2.189,2.189,0,0,1,.775-1.033,8.353,8.353,0,0,1,1.679-.517c.387-.129.517.129.387.517a4.351,4.351,0,0,0-.775,1.55" transform="translate(4.684 6.403)" fill="#0080be"/><path d="M12.241,30.347c-.129.387-.387.9-.775,1.033a7.28,7.28,0,0,1-1.55.517c-.387.129-.517-.258-.517-.646a14.036,14.036,0,0,0,.129-2.325,1.125,1.125,0,0,1,.775-1.033,6.407,6.407,0,0,0,1.679-.387c.387-.129.646.258.517.646-.129.9-.129,1.291-.258,2.2" transform="translate(2.739 8.008)" fill="#0080be"/><path d="M8.97,31.334c-.129.387-.387.9-.775,1.033a3.545,3.545,0,0,1-1.679.258c-.387,0-.517-.258-.517-.646.129-.9.129-1.55.258-2.454a1.125,1.125,0,0,1,.775-1.033,9.048,9.048,0,0,0,1.808-.387c.387-.129.646.258.517.646-.129,1.033-.258,1.679-.387,2.583" transform="translate(1.748 8.182)" fill="#0080be"/><path d="M14.754,28.835a2.189,2.189,0,0,1-.775,1.033,11.357,11.357,0,0,1-1.291.775c-.258.129-.387,0-.387-.517a12.817,12.817,0,0,1,.387-1.937,2.189,2.189,0,0,1,.775-1.033c.646-.258,1.033-.387,1.679-.646.387-.129.517,0,.387.517a7.632,7.632,0,0,0-.775,1.808" transform="translate(3.584 7.711)" fill="#0080be"/><path d="M16.885,26.738a5.389,5.389,0,0,0-.775,1.033,4.965,4.965,0,0,1-1.162,1.162c-.258.258-.258.129-.129-.258a7.632,7.632,0,0,0,.775-1.808,2.189,2.189,0,0,1,.775-1.033,13.611,13.611,0,0,0,1.421-.9c.258-.258.387-.129.129.258a10.772,10.772,0,0,1-1.033,1.55" transform="translate(4.293 7.225)" fill="#0080be"/><path d="M88.8,23.062a1.162,1.162,0,1,1,1.162,1.162A1.157,1.157,0,0,1,88.8,23.062m2.324,0a1.162,1.162,0,1,0-1.162,1.162,1.157,1.157,0,0,0,1.162-1.162m-1.55-.646h.517c.258,0,.517.129.517.387s-.129.387-.258.387l.387.517h-.258l-.387-.517h-.258v.517H89.7V22.417Zm.517.646a.258.258,0,0,0,0-.517H89.7v.387h.387Z" transform="translate(25.875 6.381)" fill="#231f20"/><path d="M13.017,1.033h-.129v-.9H12.5V0h.775V.129h-.387v.9ZM14.05.775h0L13.662.258v.775h-.129V0h.129l.387.517L14.437,0h.129V1.033h-.129V.258Z" transform="translate(3.642 0)" fill="#231f20"/></g></g></svg>